Format                                   : MPEG-4
Format profile                           : Base Media / Version 2
Codec ID                                 : mp42
File size                                : 469 MiB
Duration                                 : 12mn 1s
Overall bit rate mode                    : Variable
Overall bit rate                         : 5 459 Kbps
Encoded date                             : UTC 2012-11-08 00:26:34
Tagged date                              : UTC 2012-11-08 00:26:34
gsst                                     : 0
gstd                                     : 721235
gssd                                     : BADC235E1HH1352537381709465
gshh                                     :

Video
ID                                       : 1
Format                                   : AVC
Format/Info                              : Advanced Video Codec
Format profile                           : High@L4.0
Format settings, CABAC                   : Yes
Format settings, ReFrames                : 1 frame
Codec ID                                 : avc1
Codec ID/Info                            : Advanced Video Coding
Duration                                 : 12mn 1s
Bit rate                                 : 5 264 Kbps
Maximum bit rate                         : 11.1 Mbps
Width                                    : 1 920 pixels
Height                                   : 1 080 pixels
Display aspect ratio                     : 16:9
Frame rate mode                          : Constant
Frame rate                               : 23.976 fps
Color space                              : YUV
Chroma subsampling                       : 4:2:0
Bit depth                                : 8 bits
Scan type                                : Progressive
Bits/(Pixel*Frame)                       : 0.106
Stream size                              : 453 MiB (96%)
Tagged date                              : UTC 2012-11-08 00:26:35

Audio
ID                                       : 2
Format                                   : AAC
Format/Info                              : Advanced Audio Codec
Format profile                           : LC
Codec ID                                 : 40
Duration                                 : 12mn 1s
Bit rate mode                            : Variable
Bit rate                                 : 192 Kbps
Maximum bit rate                         : 201 Kbps
Channel(s)                               : 2 channels
Channel positions                        : Front: L R
Sampling rate                            : 44.1 KHz
Compression mode                         : Lossy
Stream size                              : 16.5 MiB (4%)

This is getting a web-only premiere on The Machinima Interactive Film Festival YouTube channel, from November 9th. The film will be broken up into 10, seven- to 12-minute episodes online until February and will remain on Machinima until April.
